<svg width="306.13" xmlns="http://www.w3.org/2000/svg" viewBox="0 0 306.13 50.43"><defs><style>.cls-1{fill:#fff;fill-opacity:0.5;}</style></defs><title>Ресурс 2</title><g id="Слой_2" data-name="Слой 2"><g id="Слой_1-2" data-name="Слой 1"><path class="cls-1" d="M75.11,33.8V25.26a8,8,0,0,0-8-8h-.34a5.7,5.7,0,0,0-4.32,1.64V8.78a1.88,1.88,0,1,0-3.76,0V40a1.88,1.88,0,0,0,3.71.3,6.09,6.09,0,0,0,4.27,1.49h.44A8,8,0,0,0,75.11,33.8Zm-3.76,0A4.23,4.23,0,0,1,67.08,38h-.44a4,4,0,0,1-4.22-3.93V24.86A4,4,0,0,1,66.64,21h.44a4.23,4.23,0,0,1,4.27,4.22Zm19.58,6.1A1.79,1.79,0,0,0,89,38a2.77,2.77,0,0,1-2.72-2.78V8.78a1.89,1.89,0,1,0-3.77,0V35.24A6.5,6.5,0,0,0,89,41.79,1.8,1.8,0,0,0,90.93,39.9Zm21.61-6.1V25.26a8,8,0,0,0-8-8h-.5a8,8,0,0,0-8,8V33.8a8,8,0,0,0,8,8h.5A8,8,0,0,0,112.54,33.8Zm-3.77,0A4.21,4.21,0,0,1,104.56,38h-.45a4.22,4.22,0,0,1-4.26-4.22V25.26A4.21,4.21,0,0,1,104.06,21h.5a4.21,4.21,0,0,1,4.21,4.22V33.8Zm26.62,0a1.84,1.84,0,0,0-1.88-1.94,1.9,1.9,0,0,0-1.89,1.94A4.28,4.28,0,0,1,127.41,38H127a4.22,4.22,0,0,1-4.26-4.22V25.26A4.21,4.21,0,0,1,126.91,21h.5a4.19,4.19,0,0,1,4.21,4.27,1.89,1.89,0,0,0,3.77,0,8,8,0,0,0-8-8h-.5a8,8,0,0,0-8,8V33.8a8,8,0,0,0,8,8h.5A8,8,0,0,0,135.39,33.8Zm23.74,6.1a1.65,1.65,0,0,0-.24-.94L152.1,27.05l6.14-6.56a1.74,1.74,0,0,0,.55-1.29,2,2,0,0,0-1.94-1.93,1.77,1.77,0,0,0-1.33.64l-9.42,10V8.78a1.89,1.89,0,1,0-3.77,0V39.9a1.89,1.89,0,1,0,3.77,0V33.5l3.32-3.58,6.19,10.87a1.81,1.81,0,0,0,1.59,1A1.9,1.9,0,0,0,159.13,39.9Zm21.42-6.1a1.84,1.84,0,0,0-1.89-1.94,1.89,1.89,0,0,0-1.88,1.94A4.28,4.28,0,0,1,172.57,38h-.45a4.22,4.22,0,0,1-4.26-4.22V25.26A4.21,4.21,0,0,1,172.07,21h.5a4.19,4.19,0,0,1,4.21,4.27,1.89,1.89,0,0,0,3.77,0,8,8,0,0,0-8-8h-.5a8,8,0,0,0-8,8V33.8a8,8,0,0,0,8,8h.5A8,8,0,0,0,180.55,33.8ZM204,39.9V25.26a8,8,0,0,0-8-8h-.39a6.27,6.27,0,0,0-4.32,1.49v-10a1.88,1.88,0,1,0-3.76,0V39.9a1.88,1.88,0,1,0,3.76,0V25c0-2.58,2.24-4,4.52-4a4.13,4.13,0,0,1,4.41,4.22V39.9a1.89,1.89,0,1,0,3.77,0Zm24.78,0a1.78,1.78,0,0,0-1.59-1.78,1.46,1.46,0,0,1-1.28-1.64V24.91a7.62,7.62,0,0,0-7.79-7.64h-.34a7.69,7.69,0,0,0-7.39,4.61,2,2,0,0,0-.2.9A1.81,1.81,0,0,0,212,24.51a1.88,1.88,0,0,0,1.69-1,4.14,4.14,0,0,1,4-2.48h.34c2.18,0,4,1.09,4,4a1.58,1.58,0,0,1-.15.84c-1.19,1.69-12.19.3-12.54,8.14v.6c0,4.62,4,7.15,8,7.15h.45a8.19,8.19,0,0,0,5.35-2,4.62,4.62,0,0,0,3.37,1.94.85.85,0,0,0,.35,0A1.82,1.82,0,0,0,228.73,39.85Zm-6.64-6.05A4.26,4.26,0,0,1,217.83,38h-.45c-2.53,0-4.21-1.34-4.21-3.48v-.4c.14-3.47,5.25-3.27,8.92-4.26Zm16.36,6.1V19.15a1.89,1.89,0,0,0-3.77,0V39.9a1.89,1.89,0,1,0,3.77,0Zm24.38,0V25.26c0-5.46-3.71-8-7.93-8h-.44a6.23,6.23,0,0,0-4.27,1.49,1.84,1.84,0,0,0-1.88-1.49,1.86,1.86,0,0,0-1.93,1.88V39.9a1.88,1.88,0,1,0,3.76,0V25.26A4.26,4.26,0,0,1,254.41,21h.44a4.23,4.23,0,0,1,4.27,4.22V39.9A1.82,1.82,0,0,0,261,41.79,1.78,1.78,0,0,0,262.83,39.9Zm19.46,0V19.15a1.89,1.89,0,0,0-3.77,0V39.9a1.89,1.89,0,1,0,3.77,0Zm23.84-6.1V25.26a8,8,0,0,0-8-8h-.5a8,8,0,0,0-8,8V33.8a8,8,0,0,0,8,8h.5A8,8,0,0,0,306.13,33.8Zm-3.77,0A4.21,4.21,0,0,1,298.15,38h-.45a4.22,4.22,0,0,1-4.26-4.22V25.26A4.21,4.21,0,0,1,297.65,21h.5a4.21,4.21,0,0,1,4.21,4.22Z"/><path class="cls-1" d="M21.33,23.13a2.09,2.09,0,1,0,2.08,2.08A2.08,2.08,0,0,0,21.33,23.13Z"/><path class="cls-1" d="M31,17.35A2.08,2.08,0,1,0,33,19.43,2.08,2.08,0,0,0,31,17.35Z"/><path class="cls-1" d="M40.58,11.56a2.09,2.09,0,1,0,2.08,2.09A2.1,2.1,0,0,0,40.58,11.56Z"/><path class="cls-1" d="M11.7,5.78a2.09,2.09,0,1,0,2.09,2.09A2.09,2.09,0,0,0,11.7,5.78Z"/><path class="cls-1" d="M21.33,0a2.09,2.09,0,1,0,2.08,2.08A2.08,2.08,0,0,0,21.33,0Z"/><path class="cls-1" d="M21.33,11.56a2.09,2.09,0,1,0,2.08,2.09A2.09,2.09,0,0,0,21.33,11.56Z"/><path class="cls-1" d="M31,5.78A2.09,2.09,0,1,0,33,7.87,2.09,2.09,0,0,0,31,5.78Z"/><path class="cls-1" d="M31,28.91A2.09,2.09,0,1,0,33,31,2.08,2.08,0,0,0,31,28.91Z"/><path class="cls-1" d="M40.58,23.13a2.09,2.09,0,1,0,2.08,2.08A2.09,2.09,0,0,0,40.58,23.13Z"/><path class="cls-1" d="M31,40.48A2.08,2.08,0,1,0,33,42.56,2.08,2.08,0,0,0,31,40.48Z"/><path class="cls-1" d="M40.58,34.69a2.09,2.09,0,1,0,2.08,2.09A2.1,2.1,0,0,0,40.58,34.69Z"/><path class="cls-1" d="M21.33,46.26a2.09,2.09,0,1,0,2.08,2.08A2.08,2.08,0,0,0,21.33,46.26Z"/><path class="cls-1" d="M21.33,34.69a2.09,2.09,0,1,0,2.08,2.09A2.09,2.09,0,0,0,21.33,34.69Z"/><path class="cls-1" d="M11.7,17.35a2.08,2.08,0,1,0,2.09,2.08A2.08,2.08,0,0,0,11.7,17.35Z"/><path class="cls-1" d="M11.7,40.48a2.08,2.08,0,1,0,2.09,2.08A2.08,2.08,0,0,0,11.7,40.48Z"/><path class="cls-1" d="M11.7,28.91A2.09,2.09,0,1,0,13.79,31,2.09,2.09,0,0,0,11.7,28.91Z"/><path class="cls-1" d="M2.08,11.56a2.09,2.09,0,1,0,2.08,2.09A2.09,2.09,0,0,0,2.08,11.56Z"/><path class="cls-1" d="M2.08,34.69a2.09,2.09,0,1,0,2.08,2.09A2.09,2.09,0,0,0,2.08,34.69Z"/><path class="cls-1" d="M2.08,23.13a2.09,2.09,0,1,0,2.08,2.08A2.08,2.08,0,0,0,2.08,23.13Z"/><path class="cls-1" d="M236.53,6.79a1.9,1.9,0,1,0,1.9,1.9A1.9,1.9,0,0,0,236.53,6.79Z"/><path class="cls-1" d="M280.39,6.79a1.9,1.9,0,1,0,1.89,1.9A1.9,1.9,0,0,0,280.39,6.79Z"/><path class="cls-1" d="M270.45,38.15A1.89,1.89,0,1,0,272.34,40,1.89,1.89,0,0,0,270.45,38.15Z"/></g></g></svg>